<svg width="98" height="24" viewBox="0 0 98 24" fill="none" xmlns="http://www.w3.org/2000/svg">
<g id="Landing page for REConnect">
<g id="App">
<g id="NavBar">
<g id="Container">
<g id="Image (HGAR)" clip-path="url(#clip0_237_117)">
<path id="Vector" d="M40.5722 20.5338V13.4461H33.4083V20.5338H29.5239V2.8772H33.4083V9.86319H40.5722V2.8772H44.4566V20.5338H40.5722Z" fill="white"/>
<path id="Vector_2" d="M55.6283 20.8353C50.1296 20.8353 46.3469 16.9764 46.3469 11.7555V11.7046C46.3469 6.68531 50.2567 2.57397 55.6047 2.57397C58.7826 2.57397 60.7003 3.43111 62.5417 4.99465L60.0956 7.94558C58.7336 6.81061 57.5223 6.15505 55.4794 6.15505C52.6538 6.15505 50.4092 8.65199 50.4092 11.6538V11.7046C50.4092 14.9334 52.6283 17.305 55.7572 17.305C57.17 17.305 58.4303 16.9527 59.4146 16.2463V13.724H55.5048V10.3699H63.1736V18.0387C61.3576 19.5768 58.8607 20.8389 55.6319 20.8389L55.6283 20.8353Z" fill="white"/>
<path id="Vector_3" d="M80.3726 20.5336L78.1281 15.5905H67.7117L65.4672 20.5336H64.1052L72.3279 2.75171H73.59L81.8126 20.5336H80.3744H80.3726ZM72.9326 4.18813L68.2656 14.4029H77.5724L72.9308 4.18813H72.9326Z" fill="white"/>
<path id="Vector_4" d="M96.019 20.5338L90.3931 13.2191H84.6165V20.5338H83.3054V2.8772H90.7218C94.5299 2.8772 97.0286 4.94557 97.0286 7.89651V7.94736C97.0286 10.8983 94.8331 12.5889 91.8568 12.9921L97.6842 20.5338H96.019ZM95.7157 7.94736C95.7157 5.57571 93.8489 4.08844 90.6455 4.08844H84.6165V12.0333H90.5693C93.5202 12.0333 95.7139 10.5442 95.7139 7.9982V7.94736H95.7157Z" fill="white"/>
<path id="Vector_5" d="M7.56166 2.29247L8.64942 3.22406L10.3201 17.5138L13.9012 17.8189L13.9139 17.7191L11.0229 16.5078L10.874 15.1349L14.3733 13.8656L15.4121 5.15987L16.4944 4.31727L17.1554 4.56605L16.6324 13.0466L23.8871 10.4134C23.1099 4.53518 18.0851 0.000732422 11.998 0.000732422C5.37161 0.000732422 0 5.37234 0 11.9988C0 14.3541 0.680985 16.5496 1.85409 18.4037L6.85525 16.5677L7.00416 18.2184L2.80566 19.7075C4.18216 21.3473 5.99085 22.6131 8.0556 23.3304L6.89338 2.77552L7.56166 2.29066V2.29247Z" fill="white"/>
<path id="Vector_6" d="M16.0005 23.3103C20.0319 21.8848 23.07 18.3673 23.8164 14.0598L16.4 16.8146L16.0005 23.3085V23.3103Z" fill="white"/>
<path id="Vector_7" d="M10.4836 18.9991L10.9685 23.9494C11.3081 23.9785 11.6513 23.9967 11.9982 23.9967C12.463 23.9967 12.9225 23.9676 13.3747 23.9149L13.8323 19.2298L10.4836 18.9973V18.9991Z" fill="white"/>
</g>
</g>
</g>
</g>
</g>
<defs>
<clipPath id="clip0_237_117">
<rect width="97.6823" height="23.9974" fill="white"/>
</clipPath>
</defs>
</svg>
