<svg width="154" height="20" viewBox="0 0 154 20" fill="none" xmlns="http://www.w3.org/2000/svg">
<g id="Landing page for REConnect">
<g id="App">
<g id="NavBar">
<g id="Container">
<g id="Image (REConnect)" clip-path="url(#clip0_237_117)">
<g id="Clip path group">
<mask id="mask0_237_117" style="mask-type:luminance" maskUnits="userSpaceOnUse" x="0" y="0" width="154" height="20">
<g id="clip0_572_61">
<path id="Vector" d="M153.932 0.000488281H0V19.9996H153.932V0.000488281Z" fill="white"/>
</g>
</mask>
<g mask="url(#mask0_237_117)">
<g id="Group">
<path id="Vector_2" d="M46.4888 17.2238C44.8101 18.7571 42.7011 19.5752 40.1497 19.5752C34.4408 19.5752 30.2168 15.2542 30.2168 10.0302C30.2168 4.80619 34.2954 0.460938 39.98 0.460938C43.1617 0.460938 45.3737 1.89723 46.416 2.93355L45.1252 4.55771C43.9556 3.38807 42.2829 2.56993 39.78 2.56993C35.7196 2.56993 32.6894 5.70312 32.6894 10.1514C32.6894 14.2785 36.0893 17.4844 40.1679 17.4844C42.6708 17.4844 44.4404 16.5875 45.41 15.6845L46.4767 17.2177L46.4888 17.2238Z" fill="white"/>
<path id="Vector_3" d="M57.7308 19.5752C52.1917 19.5752 47.8464 15.3027 47.8464 10.0302C47.8464 4.75771 52.1917 0.460938 57.7308 0.460938C63.27 0.460938 67.5425 4.53953 67.5425 10.1029C67.5425 15.3451 63.0518 19.5752 57.7308 19.5752ZM57.7308 2.57599C53.6037 2.57599 50.3009 5.73342 50.3009 9.93323C50.3009 13.9149 53.531 17.4844 57.5611 17.4844C61.5913 17.4844 65.0638 14.2542 65.0638 10.0787C65.0638 5.90311 61.7125 2.57599 57.7308 2.57599Z" fill="white"/>
<path id="Vector_4" d="M84.8506 9.78187L87.1475 12.109L87.1414 19.8723L73.2511 5.99417V6.00629L73.2754 19.2117H70.9421L70.9664 0.345947L84.8567 14.3332L84.8506 9.78187Z" fill="white"/>
<path id="Vector_5" d="M87.1657 0.824707L87.1536 5.40025L84.8325 3.05491V0.824707H87.1657Z" fill="white"/>
<path id="Vector_6" d="M110.813 19.1875V0.85498H120.843V2.92155H113.146V8.36372H119.34V10.4485H113.146V17.1512L121.625 17.127V19.1935H110.819L110.813 19.1875Z" fill="white"/>
<path id="Vector_7" d="M139.345 17.2238C137.667 18.7571 135.558 19.5752 133.006 19.5752C127.297 19.5752 123.073 15.2542 123.073 10.0302C123.073 4.80619 127.152 0.460938 132.836 0.460938C136.018 0.460938 138.23 1.89723 139.272 2.93355L137.982 4.55771C136.812 3.38807 135.139 2.56993 132.636 2.56993C128.582 2.56993 125.546 5.70312 125.546 10.1514C125.546 14.2785 128.946 17.4844 133.024 17.4844C135.527 17.4844 137.297 16.5875 138.266 15.6845L139.333 17.2177L139.345 17.2238Z" fill="white"/>
<path id="Vector_8" d="M146.072 19.2117V2.91545H140.709V0.848877H153.775V2.91545H148.405V19.2117H146.072Z" fill="white"/>
<path id="Vector_9" d="M11.0602 19.2117L4.16351 12.3636H3.79989V19.2117H0.351562V0.824707H4.13927C7.68456 0.824707 12.4177 1.5277 12.4177 6.48505C12.4177 9.95762 10.3996 11.4424 7.9997 12.0484L15.8236 19.2117H11.0602ZM4.96347 9.23038C7.56336 9.23038 8.77542 8.33345 8.77542 6.50929C8.77542 4.97603 7.68456 3.9579 5.06044 3.9579H3.79989V9.22432H4.96953L4.96347 9.23038Z" fill="white"/>
<path id="Vector_10" d="M16.5932 19.1875V0.85498H27.52V3.96393H20.0415V7.92132H26.0655V11.0545H20.0415V16.0543H28.2715V19.1875H16.5872H16.5932Z" fill="white"/>
<path id="Vector_11" d="M94.9291 15.5512C94.923 15.8239 94.82 16.0784 94.62 16.2663C94.4321 16.4602 94.1776 16.5632 93.9049 16.5632C93.6322 16.5572 93.3776 16.4542 93.1898 16.2542L87.1658 10.1878L84.8568 7.86062L82.3236 5.31528C82.1357 5.12135 82.0327 4.86076 82.0327 4.60017C82.0327 4.33957 82.1418 4.07292 82.3297 3.87293C82.5236 3.68506 82.7903 3.58203 83.0448 3.58203C83.2993 3.58809 83.572 3.68506 83.772 3.89111L84.8386 4.96985L87.1537 7.30307L94.6261 14.8361C94.82 15.0239 94.923 15.2785 94.923 15.5512H94.9291Z" fill="white"/>
<path id="Vector_12" d="M103.941 0.824671L103.965 14.3331L90.0746 0.339844L90.0625 8.31523L92.3654 10.6363L92.3594 6.00019L106.25 19.8662L106.274 0.824671H103.941Z" fill="white"/>
<path id="Vector_13" d="M92.2199 17.2117L90.0564 15.03V19.2117H92.3836V17.3451C92.329 17.3027 92.2684 17.2602 92.2199 17.2117Z" fill="white"/>
</g>
</g>
</g>
</g>
</g>
</g>
</g>
</g>
<defs>
<clipPath id="clip0_237_117">
<rect width="153.932" height="20" fill="white"/>
</clipPath>
</defs>
</svg>
