<?xml version="1.0" encoding="UTF-8"?><svg id="Layer_1" xmlns="http://www.w3.org/2000/svg" viewBox="0 0 537.91 132.14"><defs><style>.cls-1{fill:#fff;}</style></defs><path class="cls-1" d="M223.42,113.07v-39.03h-39.45v39.03h-21.39V15.84h21.39v38.47h39.45V15.84h21.39v97.23h-21.39Z"/><path class="cls-1" d="M306.33,114.73c-30.28,0-51.11-21.25-51.11-50v-.28c0-27.64,21.53-50.28,50.98-50.28,17.5,0,28.06,4.72,38.2,13.33l-13.47,16.25c-7.5-6.25-14.17-9.86-25.42-9.86-15.56,0-27.92,13.75-27.92,30.28v.28c0,17.78,12.22,30.84,29.45,30.84,7.78,0,14.72-1.94,20.14-5.83v-13.89h-21.53v-18.47h42.23v42.23c-10,8.47-23.75,15.42-41.53,15.42Z"/><path class="cls-1" d="M442.59,113.07l-12.36-27.22h-57.36l-12.36,27.22h-7.5l45.28-97.92h6.95l45.28,97.92h-7.92ZM401.62,23.06l-25.7,56.25h51.25l-25.56-56.25Z"/><path class="cls-1" d="M528.75,113.07l-30.98-40.28h-31.81v40.28h-7.22V15.84h40.84c20.97,0,34.73,11.39,34.73,27.64v.28c0,16.25-12.09,25.56-28.48,27.78l32.09,41.53h-9.17ZM527.08,43.76c0-13.06-10.28-21.25-27.92-21.25h-33.2v43.75h32.78c16.25,0,28.33-8.2,28.33-22.22v-.28Z"/><path class="cls-1" d="M41.64,12.62l5.99,5.13,9.2,78.69,19.72,1.68.07-.55-15.92-6.67-.82-7.56,19.27-6.99,5.72-47.94,5.96-4.64,3.64,1.37-2.88,46.7,39.95-14.5C127.26,24.97,99.59,0,66.07,0,29.58,0,0,29.58,0,66.07c0,12.97,3.75,25.06,10.21,35.27l27.54-10.11.82,9.09-23.12,8.2c7.58,9.03,17.54,16,28.91,19.95l-6.4-113.19,3.68-2.67Z"/><path class="cls-1" d="M88.11,128.36c22.2-7.85,38.93-27.22,43.04-50.94l-40.84,15.17-2.2,35.76Z"/><path class="cls-1" d="M57.73,104.62l2.67,27.26c1.87.16,3.76.26,5.67.26,2.56,0,5.09-.16,7.58-.45l2.52-25.8-18.44-1.28Z"/></svg>